<?xml version="1.0" encoding="UTF-8"?>
<!-- Generated by Pixelmator Pro 3.7.1 -->
<svg width="2500" height="300" viewBox="0 0 2500 300" xmlns="http://www.w3.org/2000/svg">
    <path id="X" fill="#000000" fill-rule="evenodd" stroke="none" d="M 2410.912109 247 L 2333.728027 247 L 2297.1521 185.368042 L 2296 185.368042 L 2259.424072 247 L 2188 247 L 2258.8479 142.167969 L 2194.912109 48.855957 L 2271.808105 48.855957 L 2301.76001 99.543945 L 2302.912109 99.543945 L 2333.1521 48.855957 L 2404.288086 48.855957 L 2340.063965 142.456055 Z"/>
    <path id="O" fill="#000000" fill-rule="evenodd" stroke="none" d="M 2081.736084 45.400024 C 2115.912109 45.400024 2142.312012 54.135864 2160.936035 71.608032 C 2179.560059 89.080078 2188.87207 114.519775 2188.87207 147.927979 C 2188.87207 181.336182 2179.560059 206.775879 2160.936035 224.248047 C 2142.312012 241.720093 2115.912109 250.456055 2081.736084 250.456055 C 2047.559814 250.456055 2021.208008 241.768066 2002.679932 224.391968 C 1984.151855 207.015869 1974.887939 181.528198 1974.887939 147.927979 C 1974.887939 114.327881 1984.151855 88.840088 2002.679932 71.463989 C 2021.208008 54.087891 2047.559814 45.400024 2081.736084 45.400024 Z M 2081.736084 92.920044 C 2068.104004 92.920044 2057.736084 97.047974 2050.63208 105.303955 C 2043.528076 113.560059 2039.976074 124.695923 2039.976074 138.712036 L 2039.976074 157.144043 C 2039.976074 171.160034 2043.528076 182.295898 2050.63208 190.552002 C 2057.736084 198.808105 2068.104004 202.936035 2081.736084 202.936035 C 2095.368164 202.936035 2105.783936 198.808105 2112.983887 190.552002 C 2120.184082 182.295898 2123.783936 171.160034 2123.783936 157.144043 L 2123.783936 138.712036 C 2123.783936 124.695923 2120.184082 113.560059 2112.983887 105.303955 C 2105.783936 97.047974 2095.368164 92.920044 2081.736084 92.920044 Z"/>
    <path id="F" fill="#000000" fill-rule="evenodd" stroke="none" d="M 1797.144043 48.855957 L 1957.271973 48.855957 L 1957.271973 96.375977 L 1860.791992 96.375977 L 1860.791992 130.359985 L 1943.736084 130.359985 L 1943.736084 175.864014 L 1860.791992 175.864014 L 1860.791992 247 L 1797.144043 247 Z"/>
    <path id="E" fill="#000000" fill-rule="evenodd" stroke="none" d="M 1441.224121 48.855957 L 1611.002441 48.855957 L 1611.002441 96.375977 L 1504.284668 96.375977 L 1504.284668 123.735962 L 1595.593994 123.735962 L 1595.593994 169.23999 L 1504.284668 169.23999 L 1504.284668 199.47998 L 1613 199.47998 L 1613 247 L 1441.224121 247 Z"/>
    <path id="C" fill="#000000" fill-rule="evenodd" stroke="none" d="M 1307.624023 45.400024 C 1337.000244 45.400024 1360.231934 52.743896 1377.320068 67.432007 C 1394.408203 82.120117 1402.951904 103.095825 1402.951904 130.359985 L 1342.184082 130.359985 C 1342.184082 118.839966 1339.160156 109.719971 1333.112061 103 C 1327.063965 96.280029 1318.472168 92.920044 1307.335938 92.920044 C 1294.471924 92.920044 1285.016113 96.951904 1278.968018 105.015991 C 1272.919922 113.080078 1269.895996 124.31189 1269.895996 138.712036 L 1269.895996 157.144043 C 1269.895996 171.352051 1272.919922 182.536011 1278.968018 190.696045 C 1285.016113 198.856079 1294.280029 202.936035 1306.76001 202.936035 C 1319.048096 202.936035 1328.359863 199.768066 1334.696045 193.432007 C 1341.031982 187.095947 1344.199951 178.168091 1344.199951 166.647949 L 1402.951904 166.647949 C 1402.951904 193.720093 1394.648193 214.455933 1378.040039 228.855957 C 1361.431885 243.256104 1337.960205 250.456055 1307.624023 250.456055 C 1273.831787 250.456055 1248.248047 241.81604 1230.87207 224.536011 C 1213.49585 207.255859 1204.808105 181.720215 1204.808105 147.927979 C 1204.808105 114.135864 1213.49585 88.600098 1230.87207 71.320068 C 1248.248047 54.039917 1273.831787 45.400024 1307.624023 45.400024 Z"/>
    <path id="N" fill="#000000" fill-rule="evenodd" stroke="none" d="M 1113.459717 247 L 1028.016968 150.807983 L 1028.016968 247 L 968 247 L 968 48.855957 L 1025.060303 48.855957 L 1110.503052 146.488037 L 1110.503052 48.855957 L 1170.52002 48.855957 L 1170.52002 247 Z"/>
    <path id="path1" fill="#000000" fill-rule="evenodd" stroke="none" d="M 752.223999 48.855957 L 923.583984 48.855957 L 923.583984 96.375977 L 815.871948 96.375977 L 815.871948 123.735962 L 908.031982 123.735962 L 908.031982 169.23999 L 815.871948 169.23999 L 815.871948 199.47998 L 925.600098 199.47998 L 925.600098 247 L 752.223999 247 Z"/>
    <path id="R" fill="#000000" fill-rule="evenodd" stroke="none" d="M 709.328674 109.624023 C 709.328674 121.720093 706.11499 132.66394 699.687439 142.456055 C 693.259827 152.248047 683.902283 159.447998 671.614441 164.05603 L 715 247 L 644.675659 247 L 610.080505 174.712036 L 586.828064 174.712036 L 586.828064 247 L 524.160034 247 L 524.160034 48.855957 L 643.541321 48.855957 C 657.530701 48.855957 669.487671 51.592041 679.412415 57.063965 C 689.33728 62.536011 696.804382 69.927979 701.814209 79.23999 C 706.823914 88.552002 709.328674 98.679932 709.328674 109.624023 Z M 645.526245 112.216064 C 645.526245 107.031982 643.824951 102.712036 640.422119 99.255981 C 637.019226 95.800049 632.860413 94.072021 627.94519 94.072021 L 586.828064 94.072021 L 586.828064 130.647949 L 627.94519 130.647949 C 632.860413 130.647949 637.019226 128.87207 640.422119 125.320068 C 643.824951 121.767944 645.526245 117.400024 645.526245 112.216064 Z"/>
    <path id="path2" fill="#000000" fill-rule="evenodd" stroke="none" d="M 310.223999 48.855957 L 481.583984 48.855957 L 481.583984 96.375977 L 373.871948 96.375977 L 373.871948 123.735962 L 466.031982 123.735962 L 466.031982 169.23999 L 373.871948 169.23999 L 373.871948 199.47998 L 483.599976 199.47998 L 483.599976 247 L 310.223999 247 Z"/>
    <path id="T" fill="#000000" fill-rule="evenodd" stroke="none" d="M 217.271973 99.543945 L 217.271973 247 L 153.624023 247 L 153.624023 99.543945 L 88.536011 99.543945 L 88.536011 48.855957 L 282.072021 48.855957 L 282.072021 99.543945 Z"/>
</svg>
